<?xml version="1.0" standalone="no"?>
<!DOCTYPE svg PUBLIC "-//W3C//DTD SVG 20010904//EN"
 "http://www.w3.org/TR/2001/REC-SVG-20010904/DTD/svg10.dtd">
<svg version="1.0" xmlns="http://www.w3.org/2000/svg"
 width="820.000000pt" height="820.000000pt" viewBox="0 0 820.000000 820.000000"
 preserveAspectRatio="xMidYMid meet">
<metadata>
Created by potrace 1.14, written by Peter Selinger 2001-2017
</metadata>
<g transform="translate(0.000000,820.000000) scale(0.100000,-0.100000)"
fill="#000000" stroke="none">
<path d="M6103 6378 c-53 -58 -105 -201 -144 -392 -50 -243 -90 -330 -200
-430 -72 -65 -136 -100 -214 -117 l-60 -14 43 -3 c41 -3 54 -15 30 -26 -7 -3
-3 -3 9 0 14 3 25 -1 32 -13 6 -10 11 -13 11 -8 0 6 9 16 21 23 12 8 18 9 14
3 -3 -7 3 -11 16 -11 17 0 20 -5 17 -25 -4 -20 -3 -23 8 -14 8 6 12 15 9 19
-3 5 0 12 6 16 8 4 7 9 -2 16 -11 8 -10 9 3 5 10 -4 28 7 47 29 20 21 41 34
56 34 19 0 25 5 25 23 1 21 1 22 15 3 8 -11 15 -14 15 -8 0 17 29 15 46 -3 12
-12 12 -15 2 -15 -7 0 -13 -10 -13 -23 0 -19 5 -24 28 -24 19 0 27 5 27 18 0
10 -4 21 -10 24 -6 4 -5 11 3 19 12 14 31 11 22 -4 -2 -4 7 -10 20 -13 14 -2
28 0 31 4 3 5 10 9 15 9 20 0 -11 -38 -40 -48 -27 -10 -29 -14 -27 -51 2 -23
-1 -41 -5 -41 -5 0 -9 -5 -9 -11 0 -20 -53 -79 -71 -79 -11 0 -19 -7 -19 -17
0 -13 3 -14 12 -5 20 20 26 14 24 -32 0 -24 -4 -42 -7 -40 -3 2 -11 -15 -18
-36 -7 -23 -18 -40 -26 -40 -8 0 -15 -7 -15 -16 0 -11 6 -15 20 -11 22 6 27
-12 8 -31 -9 -9 -9 -12 0 -12 6 0 18 21 26 48 24 80 72 176 102 204 46 43 211
119 354 165 25 8 88 23 140 33 98 19 192 50 225 74 17 12 16 14 -21 26 -71 22
-264 121 -279 143 -9 12 -16 20 -18 17 -3 -5 -54 37 -82 68 -11 13 -35 39 -52
58 -18 19 -33 39 -33 45 0 5 -11 30 -25 55 -14 25 -25 56 -25 69 0 14 -4 25
-8 25 -8 0 -34 79 -37 115 -7 67 -8 222 -2 233 13 19 2 14 -20 -10z m-163
-922 c0 -3 -4 -8 -10 -11 -5 -3 -10 -1 -10 4 0 6 5 11 10 11 6 0 10 -2 10 -4z
m-334 -25 c-4 -5 0 -11 6 -14 10 -3 10 -8 -1 -18 -8 -8 -11 -9 -7 -2 3 6 2 14
-4 18 -10 6 -5 25 6 25 3 0 3 -4 0 -9z m414 -21 c0 -5 -4 -10 -9 -10 -5 0 -8
-8 -7 -17 0 -10 -7 -19 -16 -21 -10 -2 -18 2 -18 8 0 7 7 10 15 6 8 -3 15 -1
15 4 0 6 -5 10 -11 10 -8 0 -8 5 1 15 14 17 30 20 30 5z"/>
<path d="M2170 6379 c-128 -25 -257 -128 -317 -255 -54 -113 -73 -201 -80
-356 -5 -126 -4 -141 18 -203 35 -100 108 -153 236 -170 89 -12 338 -64 380
-79 58 -20 154 -87 185 -128 37 -48 104 -185 123 -252 21 -73 18 -97 -44 -289
-69 -213 -74 -249 -69 -439 10 -311 81 -532 235 -727 180 -230 559 -452 1133
-666 349 -130 446 -174 598 -274 197 -130 272 -244 272 -417 0 -160 -45 -263
-168 -384 -134 -132 -244 -186 -441 -215 -114 -17 -149 -16 -421 11 -236 24
-443 207 -610 540 -37 74 -48 89 -58 78 -16 -17 -15 -24 2 -24 14 0 16 -23 3
-36 -14 -15 -6 -25 14 -19 15 5 19 4 14 -4 -4 -7 -2 -18 5 -25 6 -8 8 -27 5
-43 -5 -19 -4 -24 3 -15 7 11 10 10 16 -3 3 -9 3 -22 -1 -27 -3 -7 -1 -8 5 -4
8 5 10 -9 6 -50 -5 -50 -3 -56 10 -45 29 25 87 -41 59 -67 -7 -7 -13 -18 -13
-25 0 -7 5 -4 11 6 14 24 39 21 40 -5 l1 -23 6 23 7 23 23 -21 c12 -11 22 -31
22 -43 1 -20 2 -20 11 -4 5 9 7 23 3 30 -5 8 -4 9 4 2 6 -5 15 -26 20 -45 7
-25 10 -29 11 -12 1 21 2 21 19 4 9 -9 27 -30 40 -46 12 -16 22 -22 22 -15 1
11 3 11 13 -2 7 -8 21 -18 31 -22 10 -4 16 -10 13 -14 -8 -7 11 -33 25 -33 5
0 6 6 2 13 -5 6 8 0 28 -15 19 -15 38 -24 42 -21 3 4 6 -7 6 -24 0 -16 6 -30
13 -31 48 -6 60 -11 82 -32 22 -20 28 -22 35 -10 7 12 12 11 29 -4 12 -11 21
-25 21 -33 0 -16 17 -17 23 0 3 8 7 6 12 -7 6 -13 3 -21 -8 -28 -10 -5 -17
-16 -17 -25 0 -11 5 -9 19 8 16 19 22 22 32 11 15 -14 53 -16 44 -2 -11 17 10
11 33 -11 l22 -20 6 30 c7 35 19 40 27 12 3 -14 11 -17 31 -14 22 5 26 2 27
-18 0 -13 3 -18 6 -11 9 24 22 1 17 -31 -4 -23 -3 -28 4 -18 9 12 12 9 18 -13
4 -16 2 -31 -3 -35 -6 -3 -13 -23 -17 -43 -4 -21 -11 -38 -16 -38 -6 0 -9 3
-8 8 0 4 -4 18 -10 32 -10 24 -11 24 -11 3 -1 -28 -21 -31 -21 -4 0 22 -16 36
-24 22 -4 -5 -2 -12 4 -16 5 -3 10 -16 9 -28 0 -19 -1 -19 -7 -4 -7 15 -10 16
-27 3 -19 -13 -45 -11 -45 4 0 4 9 10 20 13 11 3 20 13 20 24 0 15 -2 16 -10
3 -5 -8 -13 -16 -17 -16 -30 -5 -53 -18 -53 -30 0 -8 -4 -14 -10 -14 -5 0 -10
7 -10 15 0 17 -16 20 -25 6 -10 -16 -46 -8 -57 13 -11 20 -11 20 -19 1 -6 -17
-8 -17 -8 -2 -1 17 -21 25 -21 9 0 -9 -57 -9 -63 -1 -2 2 -8 15 -14 29 l-12
25 0 -25 c-1 -19 -4 -21 -13 -12 -7 7 -27 12 -45 12 -18 0 -33 4 -33 9 0 5
-16 9 -35 9 -20 0 -41 5 -48 10 -8 7 -18 7 -27 2 -24 -15 -32 1 -13 23 16 19
16 20 1 8 -15 -11 -19 -11 -24 3 -5 12 -10 13 -25 5 -11 -5 -17 -14 -14 -19 3
-5 1 -11 -5 -15 -5 -3 -10 3 -10 14 0 11 4 22 9 25 5 3 11 16 14 28 5 18 1 16
-24 -12 l-31 -35 6 45 c4 38 3 41 -6 22 -6 -12 -17 -22 -25 -22 -7 0 -16 0
-20 -1 -4 0 -9 4 -11 10 -2 6 6 11 17 11 12 0 22 7 23 15 0 8 1 20 2 27 1 6
-9 12 -21 13 -13 1 -23 -2 -23 -7 0 -5 -4 -7 -10 -3 -5 3 -6 13 -3 22 5 12 2
15 -9 10 -10 -3 -19 0 -22 9 -3 9 -1 12 4 9 6 -3 10 3 10 14 0 12 4 21 8 21 4
0 8 9 9 20 2 28 -5 25 -19 -7 -11 -27 -12 -27 -15 -5 -3 12 -7 22 -10 22 -9 0
-42 -45 -43 -57 0 -7 -5 -13 -10 -13 -7 0 -7 6 0 19 5 11 10 32 9 48 0 16 -3
22 -6 13 -10 -25 -43 -41 -43 -21 0 5 7 16 15 25 8 8 15 18 15 21 0 4 -7 5
-15 1 -11 -4 -15 2 -15 25 0 20 4 28 12 23 7 -4 8 -3 4 4 -5 9 -16 8 -42 -3
-33 -14 -34 -13 -24 5 10 19 6 25 -15 20 -5 -1 -2 7 8 18 22 25 22 32 -4 32
-18 0 -19 2 -9 15 17 21 26 19 35 -8 l8 -22 4 24 c3 13 0 26 -5 30 -5 3 -12
15 -14 26 -4 18 -6 17 -16 -8 -8 -18 -16 -26 -24 -21 -9 6 -9 9 0 12 7 2 12
13 11 25 0 21 -1 21 -9 2 -6 -16 -9 -17 -13 -5 -8 20 -4 70 6 70 4 0 7 5 7 11
0 5 -4 7 -10 4 -6 -3 -10 4 -10 17 -1 21 -2 20 -15 -7 l-14 -30 3 32 c2 17 7
38 11 45 6 10 5 11 -6 1 -20 -20 -29 -16 -29 13 0 22 -2 25 -15 14 -13 -10
-15 -9 -15 9 0 11 4 21 9 21 6 0 4 12 -4 27 -8 15 -12 30 -9 35 3 4 2 14 -2
20 -5 7 -7 27 -5 45 1 18 -2 33 -8 33 -5 0 -13 10 -16 21 -6 17 -9 19 -16 8
-12 -19 -12 5 0 48 7 23 6 31 -2 27 -7 -2 -18 0 -25 5 -11 7 -11 16 -1 51 7
23 18 44 25 47 7 3 10 11 7 19 -5 13 12 34 60 73 16 12 17 12 10 -5 -4 -10
-17 -27 -30 -37 -26 -21 -30 -37 -9 -37 8 0 18 9 21 20 4 11 11 18 16 15 5 -4
9 3 9 14 0 26 15 27 29 3 9 -15 10 -14 11 6 0 15 5 22 13 19 6 -2 11 -14 10
-26 -2 -11 2 -21 8 -21 8 0 10 -14 6 -40 -3 -22 -1 -40 3 -40 5 0 10 -7 12
-15 2 -8 8 -11 15 -7 14 9 -44 185 -76 231 -22 30 -30 34 -86 46 -45 8 -229
-20 -272 -42 -52 -27 -79 -80 -99 -193 -36 -210 -67 -349 -110 -498 -70 -239
-72 -247 -79 -325 -8 -89 4 -144 51 -214 47 -72 86 -92 218 -108 31 -4 56 -10
56 -14 0 -4 -32 -17 -70 -30 -77 -26 -83 -31 -74 -55 17 -44 183 -57 718 -56
661 1 1023 20 1326 72 103 17 232 58 266 83 17 13 85 45 150 70 166 64 371
168 473 239 105 75 265 231 318 311 115 175 188 360 224 573 10 58 10 75 0 81
-7 5 -9 15 -4 26 6 17 5 18 -9 5 -8 -8 -13 -21 -11 -28 4 -8 0 -10 -11 -6 -9
3 -23 1 -30 -5 -10 -9 -16 -9 -21 -1 -4 6 -13 9 -21 6 -10 -4 -14 2 -14 19 0
28 -15 41 -24 20 -3 -8 -1 -17 4 -20 6 -4 10 -18 11 -33 0 -15 3 -21 6 -14 6
16 21 15 39 -2 19 -19 18 -30 -2 -22 -14 5 -15 4 -4 -8 6 -9 10 -20 8 -27 -7
-20 -46 25 -69 80 -22 52 -22 54 -4 67 10 8 14 14 9 14 -18 0 -34 -23 -34 -48
0 -17 -4 -23 -15 -18 -11 4 -15 -2 -16 -22 -1 -21 -2 -22 -6 -7 -3 11 -10 24
-17 28 -8 6 -7 10 2 14 10 4 10 8 0 21 -11 13 -10 15 4 9 11 -4 22 3 34 21 17
27 17 27 -3 10 -25 -22 -30 -22 -36 0 -4 14 -5 15 -6 1 0 -9 -11 -19 -23 -23
-35 -9 -38 -8 -38 14 0 11 -7 20 -15 20 -8 0 -15 9 -15 20 0 11 -4 20 -10 20
-5 0 -10 -6 -10 -14 0 -8 -4 -17 -8 -20 -5 -3 -7 9 -5 27 l3 32 -11 -28 c-16
-40 -25 -33 -24 18 0 52 -5 55 -31 20 -19 -25 -34 -18 -33 15 0 10 3 8 9 -5 8
-19 9 -19 9 2 1 12 7 24 14 26 9 4 9 8 -2 15 -12 9 -12 13 2 27 10 9 17 22 16
28 0 8 -2 8 -6 -1 -2 -7 -13 -17 -24 -23 -18 -9 -19 -7 -13 33 l6 43 -26 -30
c-14 -16 -25 -37 -25 -45 -1 -13 0 -13 9 0 5 8 12 11 16 7 7 -7 -14 -38 -24
-34 -12 3 -62 -35 -57 -43 3 -5 1 -11 -5 -15 -13 -8 -13 19 -1 43 5 9 12 26
16 37 4 13 9 15 13 8 5 -7 11 -3 19 13 9 19 8 26 -1 32 -7 4 -16 14 -19 22 -3
9 -6 4 -6 -12 -1 -15 -6 -30 -12 -34 -8 -5 -10 1 -6 18 5 18 2 28 -8 32 -13 5
-15 0 -10 -27 5 -25 2 -37 -11 -48 -16 -13 -17 -11 -11 29 9 51 -9 58 -19 7
-6 -32 -24 -50 -24 -24 0 7 -9 0 -20 -14 -11 -14 -20 -30 -20 -35 0 -6 -5 -14
-11 -18 -9 -5 -10 1 -5 19 5 22 3 25 -11 20 -12 -5 -14 -3 -8 7 4 7 8 21 9 31
1 11 6 19 11 19 6 -1 9 -10 7 -20 -2 -15 1 -18 12 -14 9 3 16 15 16 25 0 12 5
16 15 13 10 -4 15 0 15 11 0 9 -4 13 -10 10 -5 -3 -10 2 -10 12 -1 15 -3 14
-14 -6 -12 -22 -13 -22 -18 -4 -4 14 -13 19 -36 17 -25 -1 -31 2 -35 22 -2 13
2 29 9 35 19 15 18 33 -1 25 -10 -4 -15 1 -15 15 0 11 -4 18 -9 15 -5 -3 -8 6
-8 20 0 14 -5 30 -11 36 -6 6 -6 -7 0 -41 6 -35 5 -57 -2 -69 -10 -15 -11 -14
-6 7 2 13 0 35 -5 50 -6 14 -10 28 -10 31 0 3 -6 8 -13 12 -9 5 -12 23 -10 53
4 44 0 52 -22 37 -15 -10 -25 -42 -14 -42 6 0 10 5 10 12 0 6 2 9 5 6 10 -10
-8 -68 -21 -68 -7 0 -20 -10 -28 -22 -16 -22 -16 -22 -16 8 0 16 4 34 9 39 10
11 32 85 25 85 -2 0 -17 -20 -33 -45 -30 -47 -47 -51 -30 -7 6 16 6 29 0 35
-6 6 -12 -3 -17 -27 l-6 -37 -14 27 c-13 24 -12 28 3 40 10 7 21 14 25 14 4 0
5 12 4 28 -2 15 2 31 8 35 7 6 6 7 -4 4 -8 -2 -15 -15 -15 -28 0 -30 -16 -48
-41 -46 -13 1 -18 -4 -16 -15 2 -10 -2 -18 -8 -18 -5 0 -10 12 -10 26 0 17 4
23 12 18 8 -5 9 -2 4 11 -5 14 -4 16 8 6 11 -9 15 -5 20 23 4 19 12 36 18 38
6 2 8 10 4 16 -11 18 -26 4 -26 -24 0 -17 -4 -23 -12 -18 -7 4 -8 3 -4 -4 5
-8 2 -10 -9 -6 -11 4 -12 10 -6 18 7 8 7 23 2 42 l-9 29 -3 -35 c-1 -19 -2
-43 -3 -52 -1 -10 -11 -25 -23 -33 -20 -14 -23 -14 -23 -1 0 19 21 66 30 66 4
0 7 21 7 48 l1 47 -14 -39 c-8 -22 -12 -42 -9 -44 3 -3 -1 -12 -9 -21 -8 -9
-16 -27 -18 -40 -4 -32 -28 -40 -28 -10 0 13 9 33 21 45 19 20 19 25 7 50 -8
16 -13 38 -11 49 3 17 0 15 -20 -8 l-24 -28 5 30 c5 34 -13 43 -23 12 -3 -11
-12 -22 -21 -25 -11 -4 -13 0 -9 17 4 13 7 31 9 40 1 10 8 23 14 29 7 7 12 17
12 22 0 6 -9 0 -19 -13 -20 -27 -41 -21 -41 11 0 17 -2 18 -15 8 -17 -14 -21
-35 -5 -25 18 11 11 -4 -14 -28 -24 -25 -38 -26 -31 -4 2 7 6 25 10 41 5 25 4
27 -9 15 -41 -37 -44 -39 -50 -23 -8 22 -7 26 4 19 6 -3 10 0 10 8 0 18 -40
11 -40 -7 0 -6 -5 -3 -11 7 -10 18 -11 18 -25 0 -12 -16 -13 -16 -14 -1 0 18
31 81 43 86 11 5 8 42 -4 42 -5 0 -7 -5 -4 -10 4 -6 1 -18 -6 -27 -7 -8 -18
-24 -24 -36 -5 -11 -16 -22 -24 -25 -9 -3 -11 0 -5 9 6 12 5 12 -10 0 -13 -11
-20 -11 -29 -2 -9 9 -9 14 3 21 14 9 7 14 -12 11 -5 0 -9 9 -9 22 -1 16 -2 18
-6 5 -5 -22 -10 -22 -29 -3 -14 13 -14 19 -1 44 14 27 13 29 -9 29 -25 0 -33
-13 -13 -20 7 -2 1 -16 -14 -33 -31 -36 -38 -32 -47 30 -1 6 -5 1 -10 -10 -8
-19 -9 -19 -9 2 -1 16 -6 21 -16 17 -10 -4 -15 -20 -16 -48 0 -31 -2 -36 -9
-21 -4 11 -6 40 -3 65 l4 45 -17 -32 c-16 -32 -52 -48 -41 -18 4 8 2 17 -3 20
-6 4 -10 -1 -10 -9 0 -8 -9 -20 -20 -26 -16 -8 -20 -8 -20 4 0 8 6 19 14 23
13 7 20 43 17 83 -1 12 -3 13 -10 1 -6 -10 -10 -10 -16 -1 -6 9 -10 9 -16 -1
-14 -22 -11 -29 9 -22 16 6 16 5 0 -14 -10 -11 -18 -34 -18 -53 l0 -33 -20 26
c-21 27 -28 63 -9 51 7 -4 6 2 -2 17 -12 23 -12 23 -20 4 -6 -16 -8 -16 -8 -4
-1 9 -8 19 -16 23 -12 4 -13 10 -3 30 6 14 15 23 19 20 5 -3 9 4 9 16 0 20 -1
20 -25 -6 -25 -27 -35 -76 -14 -71 6 1 14 -5 17 -13 2 -8 1 -12 -3 -7 -5 4
-16 -3 -24 -15 -9 -13 -25 -24 -36 -26 l-20 -3 20 17 c14 11 16 18 8 21 -7 3
-13 9 -13 14 0 6 5 7 12 3 6 -4 8 -3 5 3 -4 6 -2 25 4 42 13 38 4 55 -10 18
-18 -47 -31 -41 -26 15 l4 53 -10 -45 c-6 -25 -17 -51 -24 -59 -12 -12 -15
-10 -21 13 -5 20 -11 26 -23 21 -13 -5 -14 -4 -3 6 6 7 12 18 12 24 0 5 -5 3
-10 -5 -8 -12 -13 -13 -30 -2 -11 6 -31 12 -44 12 -16 0 -26 7 -30 23 -6 20
-7 20 -17 5 -15 -26 -27 -22 -22 6 4 21 2 24 -18 19 -17 -5 -20 -3 -14 7 6 10
3 12 -13 8 -27 -7 -30 16 -5 31 10 5 15 12 12 15 -3 4 -18 -5 -33 -19 -22 -20
-31 -23 -52 -15 -19 8 -25 16 -21 29 3 13 -2 21 -15 25 -13 3 -19 10 -15 20 3
8 0 17 -8 19 -7 3 -16 25 -20 49 -6 35 -9 39 -16 23 -4 -11 -8 -29 -8 -40 -1
-17 1 -17 9 -5 8 12 10 11 10 -6 0 -14 -8 -24 -22 -28 -35 -9 -38 -8 -39 17
-1 16 -2 18 -6 5 -2 -10 -11 -18 -19 -18 -11 0 -12 4 -4 19 8 16 6 22 -7 30
-16 8 -15 11 5 28 19 15 22 22 13 43 l-10 25 0 -29 c-2 -54 -22 -13 -28 55 -4
44 -8 58 -14 44 -8 -20 -8 -20 -8 0 -1 15 -3 17 -10 6 -11 -17 -32 -5 -24 14
6 17 -14 20 -36 6 -22 -14 -53 -1 -48 20 3 10 -1 23 -8 29 -7 6 -11 20 -8 30
3 11 1 20 -5 20 -6 0 -12 -12 -14 -27 -4 -37 -21 -38 -37 -2 -10 22 -19 29
-32 26 -15 -4 -17 -1 -10 11 4 10 5 28 0 42 -4 14 -7 19 -8 13 -1 -7 -6 -13
-12 -13 -6 0 -8 9 -4 20 4 14 2 20 -9 20 -21 0 -31 20 -16 30 11 7 10 11 -3
24 -8 9 -23 16 -31 16 -17 0 -22 16 -7 22 4 2 12 14 16 27 6 19 4 23 -8 18
-11 -4 -14 -2 -10 9 3 7 9 14 14 14 5 0 9 7 9 15 0 8 7 15 15 15 8 0 19 9 25
20 6 11 16 19 22 17 6 -1 12 3 14 8 3 6 -9 12 -26 13 -25 2 -32 -3 -41 -25
l-12 -28 -8 29 c-5 19 -4 35 2 42 14 17 3 35 -16 27 -25 -9 -16 13 10 25 26
12 42 53 29 74 -5 7 -7 23 -5 36 1 12 -2 22 -8 22 -16 0 -13 36 4 50 8 7 15 9
15 4 0 -5 6 -2 13 7 7 9 22 19 35 23 12 4 22 13 22 21 0 10 5 11 24 2 13 -6
21 -17 19 -24 -10 -25 6 -12 21 17 16 32 13 35 -39 31 -20 -2 -20 -1 -1 14 16
12 22 12 28 2 4 -7 6 2 4 21 -3 30 -1 33 18 28 26 -6 51 8 42 23 -4 6 -2 11 3
11 6 0 11 5 11 10 0 22 -28 8 -35 -17 -5 -21 -8 -24 -15 -12 -5 7 -14 15 -20
15 -5 1 -14 2 -19 3 -4 0 -6 13 -3 27 3 19 7 22 13 12 5 -7 9 -8 9 -3 0 6 -14
23 -31 38 -19 16 -29 33 -25 42 3 8 1 15 -5 15 -6 0 -7 4 -4 10 3 5 0 7 -8 4
-8 -3 -18 -1 -21 5 -4 6 -13 8 -21 4 -10 -3 -15 2 -15 17 0 11 4 19 9 16 10
-6 23 33 15 46 -10 15 -22 8 -17 -11 3 -11 -2 -21 -13 -25 -20 -8 -21 -7 -24
19 -3 32 11 65 29 66 9 0 11 3 4 5 -7 3 -9 12 -6 21 5 13 3 13 -15 2 -11 -7
-19 -15 -18 -19 8 -12 -14 -50 -29 -50 -8 0 -15 -4 -15 -9 0 -5 -15 -11 -32
-15 -26 -5 -30 -9 -18 -16 9 -6 18 -6 24 0 6 6 18 10 28 10 10 0 18 5 18 10 0
6 4 10 10 10 5 0 7 -6 5 -13 -8 -18 -85 -41 -98 -28 -6 6 -20 11 -31 11 -20 0
-20 0 0 15 19 14 18 14 -3 15 -13 0 -28 -9 -35 -20 -15 -24 -38 -26 -38 -5 0
9 -6 18 -14 21 -25 10 -27 32 -3 27 17 -4 16 -2 -6 11 -15 8 -34 13 -42 9 -10
-3 -15 1 -15 12 0 13 -3 15 -13 6 -8 -6 -17 -8 -20 -4 -4 3 -7 1 -7 -5 0 -7
-4 -12 -10 -12 -12 0 -8 43 5 52 5 4 6 10 1 15 -4 4 -12 0 -17 -10 -12 -21
-31 -23 -23 -2 4 8 1 15 -5 15 -7 0 -11 8 -9 17 2 10 -3 18 -9 19 -7 1 -17 2
-22 3 -4 0 -7 15 -5 32 3 24 1 30 -11 25 -9 -3 -15 0 -15 9 0 8 -6 15 -14 15
-8 0 -18 10 -22 23 -4 12 -18 32 -31 45 -17 15 -22 28 -18 42 5 16 2 20 -15
20 -12 0 -18 4 -15 10 9 14 -13 50 -31 50 -11 0 -13 6 -9 21 5 15 1 25 -14 35
-12 9 -21 22 -21 30 0 9 -7 14 -17 12 -12 -2 -17 3 -16 16 1 13 -2 15 -10 7
-14 -14 -30 -14 -22 -1 4 7 -5 9 -24 5 -17 -3 -31 -1 -31 4 0 5 -12 12 -26 15
-25 7 -26 9 -20 54 28 204 25 285 -16 437 -26 96 -43 135 -58 135 -6 0 -10 9
-10 20 0 11 -5 20 -10 20 -6 0 -23 12 -37 28 -15 15 -23 20 -19 12 5 -9 2 -8
-7 3 -8 9 -16 17 -18 16 -2 -1 -24 -5 -49 -10z m-298 -489 c-2 -16 0 -30 5
-30 6 0 18 -18 28 -40 10 -22 24 -40 32 -40 15 0 16 -9 4 -29 -7 -11 -13 -10
-32 8 -12 11 -19 21 -14 21 17 0 -27 38 -51 44 -14 4 -24 13 -23 24 0 10 3 12
6 4 8 -20 23 -3 23 27 0 15 3 31 7 34 14 14 19 6 15 -23z m-6 -116 c-3 -8 -2
-14 2 -14 4 -1 18 -10 31 -21 19 -15 22 -22 12 -28 -9 -6 -10 -11 -2 -15 6 -4
11 -2 11 3 0 6 5 11 10 11 6 0 10 -4 10 -9 0 -15 -29 -21 -58 -11 l-27 10 30
-25 c35 -29 27 -33 -13 -8 -37 24 -56 43 -43 43 6 0 11 7 11 15 0 8 -4 15 -10
15 -5 0 -10 4 -10 10 0 5 8 7 18 3 13 -5 12 -1 -6 19 l-22 25 30 -5 c21 -3 30
-9 26 -18z m1419 -783 c3 -5 1 -12 -4 -15 -5 -3 -11 1 -15 9 -6 16 9 21 19 6z
m65 -171 c0 -5 -2 -10 -4 -10 -3 0 -8 5 -11 10 -3 6 -1 10 4 10 6 0 11 -4 11
-10z m-110 -639 c0 -6 -4 -13 -10 -16 -5 -3 -10 1 -10 9 0 9 5 16 10 16 6 0
10 -4 10 -9z m150 -150 c0 -5 -7 -11 -14 -14 -10 -4 -13 -1 -9 9 6 15 23 19
23 5z m82 -90 c-4 -11 -7 -10 -12 5 -4 10 -5 25 -2 33 4 11 7 10 12 -5 4 -10
5 -25 2 -33z m25 -21 c-14 -37 -19 -33 -11 8 4 18 10 29 14 27 5 -3 3 -18 -3
-35z m33 -2 c0 -21 -3 -29 -10 -22 -5 5 -7 19 -4 32 9 31 14 27 14 -10z m0
-42 c0 -3 -4 -8 -10 -11 -5 -3 -10 -1 -10 4 0 6 5 11 10 11 6 0 10 -2 10 -4z
m110 -156 c8 -5 11 -10 5 -10 -5 0 -17 5 -25 10 -8 5 -10 10 -5 10 6 0 17 -5
25 -10z m377 -202 c-3 -8 -6 -5 -6 6 -1 11 2 17 5 13 3 -3 4 -12 1 -19z m263
-52 c0 -3 -4 -8 -10 -11 -5 -3 -10 -1 -10 4 0 6 5 11 10 11 6 0 10 -2 10 -4z
m240 -125 c0 -5 -6 -14 -14 -20 -12 -10 -13 -8 -9 8 5 21 23 30 23 12z m296
-133 c-16 -22 -16 -22 -16 -1 0 12 6 23 13 26 19 7 20 0 3 -25z m79 -78 c3 -5
1 -10 -4 -10 -6 0 -11 5 -11 10 0 6 2 10 4 10 3 0 8 -4 11 -10z m45 -3 c0 -8
-9 -24 -20 -37 -24 -28 -26 -20 -5 20 17 32 25 38 25 17z m-80 -51 c0 -3 -4
-8 -10 -11 -5 -3 -10 -1 -10 4 0 6 5 11 10 11 6 0 10 -2 10 -4z m18 -36 c-7
-11 -15 -15 -17 -9 -2 6 3 15 10 20 20 12 21 11 7 -11z m105 -37 c-7 -3 -13
-11 -13 -19 0 -8 -4 -14 -10 -14 -5 0 -10 5 -10 10 0 6 0 13 0 18 0 4 4 7 9 7
5 0 13 3 17 8 4 4 10 4 13 1 3 -4 0 -9 -6 -11z m74 -75 c-3 -8 -6 -5 -6 6 -1
11 2 17 5 13 3 -3 4 -12 1 -19z m166 -45 c7 -16 12 -34 11 -40 -1 -7 -2 -23
-3 -35 -2 -33 -10 -17 -15 28 -2 21 -7 47 -11 57 -12 28 3 19 18 -10z m44
-215 c-3 -8 -6 -5 -6 6 -1 11 2 17 5 13 3 -3 4 -12 1 -19z m273 -62 c0 -2 -7
-7 -16 -10 -8 -3 -12 -2 -9 4 6 10 25 14 25 6z m-20 -41 c0 -8 -4 -15 -10 -15
-5 0 -10 7 -10 15 0 8 5 15 10 15 6 0 10 -7 10 -15z m-2480 -151 c0 -8 -4 -12
-10 -9 -5 3 -10 10 -10 16 0 5 5 9 10 9 6 0 10 -7 10 -16z m-124 -29 c-3 -8
-10 -15 -15 -15 -5 0 -4 11 2 25 12 25 23 16 13 -10z m47 6 c-5 -20 -31 -36
-41 -26 -3 3 0 5 6 5 7 0 12 6 12 14 0 8 6 17 13 19 6 3 13 6 14 6 0 1 -1 -8
-4 -18z m2927 -35 c-1 -22 -22 -56 -34 -56 -4 0 -4 10 0 23 4 12 7 38 6 57 -1
33 0 34 13 16 8 -11 15 -29 15 -40z m-2990 -6 c0 -5 -7 -10 -16 -10 -8 0 -12
5 -9 10 3 6 10 10 16 10 5 0 9 -4 9 -10z m2910 -27 c0 -32 -5 -28 -14 10 -4
19 -3 26 4 22 5 -3 10 -18 10 -32z m130 -17 c0 -3 -7 -6 -15 -6 -9 0 -15 -9
-15 -22 -1 -27 -26 -65 -37 -55 -4 4 -1 13 5 19 7 7 12 29 12 49 0 40 16 54
37 33 7 -7 13 -15 13 -18z m50 -13 c0 -5 -5 -15 -10 -23 -8 -12 -10 -11 -10 8
0 12 5 22 10 22 6 0 10 -3 10 -7z m-3080 -115 c0 -18 -2 -20 -9 -8 -6 8 -7 18
-5 22 9 14 14 9 14 -14z m-33 -30 c-3 -8 -6 -5 -6 6 -1 11 2 17 5 13 3 -3 4
-12 1 -19z m73 -67 c0 -6 -4 -13 -10 -16 -5 -3 -10 1 -10 9 0 9 5 16 10 16 6
0 10 -4 10 -9z m12 -163 c-7 -7 -12 -8 -12 -2 0 14 12 26 19 19 2 -3 -1 -11
-7 -17z m291 -3 c-3 -9 -8 -14 -10 -11 -3 3 -2 9 2 15 9 16 15 13 8 -4z m-113
-395 c0 -5 -5 -10 -11 -10 -5 0 -7 5 -4 10 3 6 8 10 11 10 2 0 4 -4 4 -10z
m792 -132 c-5 -21 -6 -21 -12 -2 -8 21 -3 37 10 29 4 -3 6 -15 2 -27z m1008
11 c0 -6 -7 -17 -15 -25 -8 -9 -15 -24 -15 -35 0 -12 -7 -19 -20 -19 l-21 0
21 22 c11 13 23 33 26 45 6 23 24 32 24 12z m-1610 -19 c0 -5 -5 -10 -11 -10
-5 0 -7 5 -4 10 3 6 8 10 11 10 2 0 4 -4 4 -10z m846 -25 c3 -14 12 -25 20
-25 8 0 14 -10 14 -25 0 -14 -4 -25 -10 -25 -5 0 -10 -5 -10 -11 0 -8 4 -9 13
0 17 13 27 5 27 -23 1 -20 2 -20 14 -3 7 9 18 17 25 17 16 0 14 38 -4 47 -17
10 -9 53 9 53 7 0 20 -16 29 -36 15 -31 37 -39 37 -13 0 6 -4 8 -9 4 -15 -8
-20 9 -7 20 23 20 37 15 42 -15 9 -42 25 -38 21 5 -3 19 0 35 4 35 5 0 9 -6 9
-13 0 -7 14 -18 30 -24 24 -9 33 -9 44 3 20 19 26 18 26 -6 0 -11 5 -20 10
-20 6 0 10 7 10 15 0 8 5 15 10 15 6 0 10 -10 10 -22 0 -20 1 -20 20 -3 19 17
20 17 29 -9 6 -14 15 -26 20 -26 5 0 13 -10 17 -22 6 -21 7 -21 21 -2 14 18
15 18 11 0 -1 -10 -14 -26 -28 -35 -22 -15 -24 -15 -17 2 3 9 2 17 -3 17 -6 0
-10 -4 -10 -10 0 -5 -5 -10 -11 -10 -7 0 -18 -8 -26 -17 -14 -17 -14 -17 -9 2
6 19 5 19 -8 2 -13 -17 -15 -16 -22 15 l-7 33 -9 -36 c-8 -32 -12 -35 -39 -31
-20 3 -29 0 -29 -9 0 -11 -2 -11 -10 1 -8 12 -11 13 -19 1 -11 -17 -49 -6 -53
17 -3 15 -6 14 -23 -5 -11 -13 -26 -23 -34 -23 -11 0 -9 6 7 20 12 12 22 31
21 43 -1 20 -1 20 -8 -3 -7 -24 -7 -24 -19 -5 -10 17 -11 17 -12 3 0 -10 -9
-22 -21 -28 -24 -13 -41 -4 -19 10 12 8 11 10 -5 11 -11 1 -27 2 -36 1 -12 -1
-19 10 -23 42 -4 25 -13 47 -21 50 -9 3 -15 19 -15 41 0 40 17 47 26 10z m254
0 c-7 -9 -15 -13 -17 -11 -7 7 7 26 19 26 6 0 6 -6 -2 -15z m-180 -70 c0 -8
-4 -15 -10 -15 -5 0 -10 7 -10 15 0 8 5 15 10 15 6 0 10 -7 10 -15z m450 -24
c0 -6 -4 -13 -10 -16 -5 -3 -10 1 -10 9 0 9 5 16 10 16 6 0 10 -4 10 -9z
m-528 -43 c-7 -7 -12 -20 -12 -30 0 -10 -7 -18 -15 -18 -8 0 -15 3 -15 8 0 14
31 52 43 52 8 0 8 -3 -1 -12z m58 -30 c0 -4 -13 -8 -30 -8 -16 0 -30 4 -30 8
0 5 14 8 30 8 17 0 30 -3 30 -8z"/>
<path d="M1858 5713 c7 -3 16 -2 19 1 4 3 -2 6 -13 5 -11 0 -14 -3 -6 -6z"/>
<path d="M4349 1278 c-6 -21 -5 -38 2 -38 5 0 9 9 9 20 0 16 -7 28 -11 18z"/>
<path d="M4480 1270 c0 -5 5 -10 10 -10 6 0 10 5 10 10 0 6 -4 10 -10 10 -5 0
-10 -4 -10 -10z"/>
<path d="M4391 1254 c0 -11 3 -14 6 -6 3 7 2 16 -1 19 -3 4 -6 -2 -5 -13z"/>
<path d="M4565 1230 c-3 -5 -1 -10 4 -10 6 0 11 5 11 10 0 6 -2 10 -4 10 -3 0
-8 -4 -11 -10z"/>
<path d="M4450 1214 c0 -8 5 -12 10 -9 6 4 8 11 5 16 -9 14 -15 11 -15 -7z"/>
<path d="M6190 6263 c-18 -23 -20 -36 -15 -73 8 -61 24 -108 49 -150 12 -19
28 -47 35 -62 12 -23 17 -26 34 -16 17 8 23 6 38 -13 10 -13 19 -27 19 -31 0
-5 8 -8 19 -8 29 0 55 -86 33 -112 -12 -14 -10 -20 16 -45 44 -41 176 -115
195 -107 19 7 31 34 15 34 -6 0 -6 6 3 16 11 14 11 18 -4 29 -9 7 -17 22 -17
33 0 19 -11 49 -43 119 -6 13 -18 25 -29 29 -10 3 -18 12 -18 20 0 14 -26 49
-66 88 -11 12 -23 29 -27 39 -4 10 -11 15 -17 12 -5 -3 -10 0 -10 9 0 8 -6 16
-12 18 -7 3 -13 13 -13 24 0 10 -6 18 -13 16 -7 -1 -17 9 -23 22 -7 16 -17 22
-26 19 -12 -5 -14 -1 -9 15 6 16 3 19 -12 15 -21 -5 -37 21 -25 39 4 7 -2 9
-16 5 -17 -4 -21 -2 -17 9 3 8 -1 14 -10 14 -8 0 -12 5 -9 10 13 21 -4 9 -25
-17z m246 -441 c-12 -11 -18 7 -10 30 l8 23 4 -23 c2 -13 1 -26 -2 -30z"/>
<path d="M5860 5457 c0 -8 -10 -19 -22 -25 -18 -8 -19 -11 -5 -11 9 -1 17 -8
17 -16 0 -33 18 -12 22 25 2 22 0 40 -4 40 -5 0 -8 -6 -8 -13z"/>
<path d="M5790 5450 c0 -5 5 -10 10 -10 6 0 10 5 10 10 0 6 -4 10 -10 10 -5 0
-10 -4 -10 -10z"/>
<path d="M5980 5450 c-13 -8 -12 -10 3 -10 9 0 17 5 17 10 0 12 -1 12 -20 0z"/>
<path d="M5766 5391 c-4 -7 -5 -15 -2 -18 9 -9 19 4 14 18 -4 11 -6 11 -12 0z"/>
<path d="M5927 5393 c-4 -3 -7 -11 -7 -17 0 -6 5 -5 12 2 6 6 9 14 7 17 -3 3
-9 2 -12 -2z"/>
<path d="M5725 5379 c-10 -15 3 -25 16 -12 7 7 7 13 1 17 -6 3 -14 1 -17 -5z"/>
<path d="M5636 5371 c-4 -7 -5 -15 -2 -18 9 -9 19 4 14 18 -4 11 -6 11 -12 0z"/>
<path d="M5715 5320 c3 -5 8 -10 11 -10 2 0 4 5 4 10 0 6 -5 10 -11 10 -5 0
-7 -4 -4 -10z"/>
<path d="M4609 5306 c-2 -2 -44 -7 -94 -11 -49 -3 -91 -8 -95 -10 -3 -2 -35
-6 -72 -9 -38 -3 -76 -10 -87 -15 -10 -6 -47 -17 -82 -25 -165 -37 -196 -45
-224 -60 -16 -9 -38 -13 -47 -10 -10 3 -18 0 -18 -5 0 -6 -13 -10 -29 -9 -17
1 -38 -5 -49 -15 -20 -18 -52 -23 -52 -8 0 5 -9 7 -20 4 -10 -3 -18 -10 -17
-16 1 -5 -9 -13 -23 -17 -14 -3 -31 -18 -38 -32 -7 -15 -21 -30 -32 -33 -11
-4 -20 -11 -20 -16 0 -6 -4 -7 -10 -4 -5 3 -10 1 -10 -4 0 -6 -16 -18 -37 -26
-20 -8 -33 -18 -30 -22 4 -3 13 0 22 7 9 7 19 10 22 6 4 -4 -14 -26 -40 -49
-26 -23 -47 -46 -47 -52 0 -5 10 1 23 15 13 14 38 37 56 52 18 15 29 32 26 38
-3 5 1 10 9 10 23 0 20 -14 -9 -48 -20 -24 -22 -31 -10 -36 8 -3 15 0 15 7 0
8 4 6 10 -3 6 -10 10 -11 10 -2 0 6 5 12 11 12 7 0 8 -16 3 -45 -5 -38 -4 -44
9 -39 9 3 24 1 34 -5 10 -6 12 -11 6 -11 -7 0 -13 -5 -13 -12 0 -6 -10 -22
-22 -35 -32 -34 -4 -28 32 7 17 17 36 30 42 30 7 0 3 -7 -8 -15 -10 -8 -15
-15 -10 -15 5 0 3 -7 -4 -15 -10 -12 -10 -15 4 -15 21 0 20 -6 -4 -32 -10 -12
-17 -25 -14 -30 3 -4 -2 -11 -11 -14 -14 -6 -14 -9 -3 -16 10 -8 10 -11 0 -15
-6 -2 -10 -9 -7 -13 3 -5 1 -11 -5 -15 -5 -3 -10 2 -10 11 0 16 -1 16 -19 0
-10 -9 -18 -28 -18 -42 0 -26 6 -24 50 19 15 15 21 16 33 6 13 -11 12 -14 -10
-26 -16 -9 -23 -19 -19 -29 5 -13 7 -13 23 1 22 20 26 19 26 -4 0 -11 -11 -25
-23 -32 -13 -7 -23 -17 -23 -22 0 -6 8 -3 18 6 10 10 28 17 40 17 14 0 22 6
22 18 0 9 14 60 32 112 29 84 40 103 97 163 78 82 180 152 269 183 37 12 121
33 187 45 149 26 244 23 331 -12 87 -36 228 -133 310 -214 107 -105 113 -140
62 -385 -35 -172 -33 -191 23 -233 68 -49 367 -77 641 -59 196 13 273 31 290
67 14 31 4 55 -22 55 -11 0 -20 6 -20 13 0 10 -14 14 -45 15 -25 0 -45 -4 -45
-9 0 -6 -5 -7 -11 -4 -6 4 -8 13 -5 20 4 10 -1 10 -22 -1 -36 -18 -41 -18 -63
9 -10 12 -18 16 -19 10 0 -7 -6 -13 -14 -13 -8 0 -17 -6 -19 -12 -4 -10 -6 -9
-6 1 -1 11 -4 11 -16 1 -9 -8 -15 -9 -15 -2 0 6 5 14 10 17 6 3 10 15 10 26 0
15 -5 19 -18 15 -21 -7 -64 22 -44 30 17 8 15 27 -3 20 -8 -3 -15 -1 -15 4 0
6 4 10 9 10 12 0 21 39 10 46 -5 3 -9 -2 -9 -10 0 -9 -3 -16 -7 -16 -5 0 -7
27 -6 60 0 33 -2 60 -7 60 -14 0 -21 32 -9 46 9 11 8 14 -4 14 -21 0 -25 18
-15 64 7 33 6 42 -12 61 -14 15 -17 24 -9 32 7 7 7 13 1 17 -6 3 -13 2 -17 -4
-3 -5 -11 -10 -16 -10 -6 0 -7 6 -2 13 10 16 4 49 -12 62 -8 5 -15 21 -17 35
-2 17 -10 26 -26 28 -12 2 -20 8 -17 13 4 5 -1 12 -9 15 -9 3 -16 13 -16 21 0
9 -6 13 -15 9 -10 -3 -15 1 -15 12 0 9 -7 26 -15 36 -8 10 -12 22 -10 26 2 4
-7 6 -20 4 -23 -2 -31 9 -26 39 1 4 -7 2 -17 -4 -16 -10 -23 -8 -40 9 -12 12
-28 18 -40 15 -13 -3 -25 3 -36 18 -9 13 -16 20 -16 16 0 -4 -15 0 -32 10 -18
10 -37 18 -43 19 -36 3 -96 30 -100 46 -5 14 -13 17 -36 13 -17 -3 -29 -1 -29
5 0 6 -6 10 -12 8 -18 -3 -117 22 -123 32 -3 5 -40 12 -83 15 -42 4 -80 12
-83 16 -3 5 -7 7 -10 5z m-849 -196 c0 -5 -4 -10 -10 -10 -5 0 -10 5 -10 10 0
6 5 10 10 10 6 0 10 -4 10 -10z m-110 -140 c0 -5 -5 -10 -11 -10 -5 0 -7 5 -4
10 3 6 8 10 11 10 2 0 4 -4 4 -10z m35 -90 c-3 -5 -12 -10 -18 -10 -7 0 -6 4
3 10 19 12 23 12 15 0z m1870 -170 c-3 -5 -11 -10 -16 -10 -6 0 -7 5 -4 10 3
6 11 10 16 10 6 0 7 -4 4 -10z m-1842 -47 c-7 -2 -19 -2 -25 0 -7 3 -2 5 12 5
14 0 19 -2 13 -5z m-5 -34 c-2 -6 -8 -10 -13 -10 -5 0 -11 4 -13 10 -2 6 4 11
13 11 9 0 15 -5 13 -11z m-68 -23 c0 -2 -7 -7 -16 -10 -8 -3 -12 -2 -9 4 6 10
25 14 25 6z m2010 -311 c0 -8 -4 -15 -10 -15 -5 0 -7 7 -4 15 4 8 8 15 10 15
2 0 4 -7 4 -15z"/>
<path d="M5765 5300 c-3 -5 -2 -10 4 -10 5 0 13 5 16 10 3 6 2 10 -4 10 -5 0
-13 -4 -16 -10z"/>
<path d="M5775 5271 c-3 -5 -1 -12 5 -16 5 -3 10 1 10 9 0 18 -6 21 -15 7z"/>
<path d="M3560 5215 c-7 -9 -11 -18 -8 -20 3 -3 11 1 18 10 7 9 11 18 8 20 -3
3 -11 -1 -18 -10z"/>
<path d="M3096 5154 c-22 -21 -20 -34 5 -34 12 0 18 4 13 11 -3 6 -1 15 6 19
8 5 9 10 2 14 -6 3 -18 -1 -26 -10z"/>
<path d="M3690 5130 c0 -5 5 -10 11 -10 5 0 7 5 4 10 -3 6 -8 10 -11 10 -2 0
-4 -4 -4 -10z"/>
<path d="M3658 5123 c7 -3 16 -2 19 1 4 3 -2 6 -13 5 -11 0 -14 -3 -6 -6z"/>
<path d="M3605 5100 c-3 -6 1 -7 9 -4 18 7 21 14 7 14 -6 0 -13 -4 -16 -10z"/>
<path d="M3576 4871 c-3 -5 -15 -7 -25 -4 -10 3 -22 -1 -26 -8 -6 -9 -2 -11
13 -7 12 3 22 2 24 -4 2 -5 12 0 22 11 11 12 14 21 8 21 -6 0 -13 -4 -16 -9z"/>
<path d="M3478 4837 c-16 -6 -28 -14 -28 -19 0 -14 17 -9 41 12 27 22 26 22
-13 7z"/>
<path d="M3532 4779 c-13 -16 -21 -29 -17 -29 7 0 55 47 55 55 0 13 -17 2 -38
-26z"/>
<path d="M3406 4775 c-3 -8 -1 -15 4 -15 6 0 10 7 10 15 0 8 -2 15 -4 15 -2 0
-6 -7 -10 -15z"/>
<path d="M3440 4770 c-9 -6 -10 -10 -3 -10 6 0 15 5 18 10 8 12 4 12 -15 0z"/>
<path d="M3650 4725 c-15 -8 -19 -14 -10 -14 18 -1 46 16 40 23 -3 2 -16 -2
-30 -9z"/>
<path d="M3620 4670 c-9 -6 -10 -10 -3 -10 6 0 15 5 18 10 8 12 4 12 -15 0z"/>
<path d="M3580 4660 c0 -5 5 -10 11 -10 5 0 7 5 4 10 -3 6 -8 10 -11 10 -2 0
-4 -4 -4 -10z"/>
<path d="M3556 4614 c-8 -21 -3 -26 17 -18 9 3 13 12 10 20 -7 19 -19 18 -27
-2z"/>
<path d="M3525 4560 c-3 -5 3 -10 14 -10 12 0 21 5 21 10 0 6 -6 10 -14 10 -8
0 -18 -4 -21 -10z"/>
<path d="M3530 4515 c0 -8 2 -15 4 -15 2 0 6 7 10 15 3 8 1 15 -4 15 -6 0 -10
-7 -10 -15z"/>
<path d="M3263 4493 c-25 -17 -30 -33 -10 -33 11 0 42 39 35 45 -2 1 -13 -4
-25 -12z"/>
<path d="M3732 4480 c0 -19 2 -27 5 -17 2 9 2 25 0 35 -3 9 -5 1 -5 -18z"/>
<path d="M3529 4453 c-13 -16 -12 -17 4 -4 16 13 21 21 13 21 -2 0 -10 -8 -17
-17z"/>
<path d="M3791 4324 c0 -11 3 -14 6 -6 3 7 2 16 -1 19 -3 4 -6 -2 -5 -13z"/>
<path d="M3230 4300 c0 -5 5 -10 10 -10 6 0 10 5 10 10 0 6 -4 10 -10 10 -5 0
-10 -4 -10 -10z"/>
<path d="M3675 4110 c3 -5 8 -10 11 -10 2 0 4 5 4 10 0 6 -5 10 -11 10 -5 0
-7 -4 -4 -10z"/>
<path d="M3450 4070 c0 -5 5 -10 10 -10 6 0 10 5 10 10 0 6 -4 10 -10 10 -5 0
-10 -4 -10 -10z"/>
<path d="M3645 4054 c-20 -15 -20 -16 4 -12 14 2 26 9 29 16 5 16 -9 15 -33
-4z"/>
<path d="M4116 4043 c-6 -14 -5 -15 5 -6 7 7 10 15 7 18 -3 3 -9 -2 -12 -12z"/>
<path d="M3650 4015 c-7 -9 -8 -15 -2 -15 5 0 12 7 16 15 3 8 4 15 2 15 -2 0
-9 -7 -16 -15z"/>
<path d="M3928 4013 c7 -3 16 -2 19 1 4 3 -2 6 -13 5 -11 0 -14 -3 -6 -6z"/>
<path d="M3731 3994 c0 -11 3 -14 6 -6 3 7 2 16 -1 19 -3 4 -6 -2 -5 -13z"/>
<path d="M4406 4001 c6 -7 42 -27 80 -46 38 -19 65 -35 60 -35 -5 0 -3 -7 5
-16 7 -9 22 -14 36 -11 19 3 24 -2 36 -36 12 -37 14 -39 30 -23 9 10 17 16 18
14 6 -23 4 -48 -4 -48 -6 0 -8 -2 -5 -5 3 -3 17 -1 31 4 32 12 61 -10 52 -40
-4 -11 -2 -19 4 -19 6 0 11 11 11 24 0 17 5 23 18 21 9 -1 16 -10 15 -19 0
-11 4 -15 12 -12 8 3 28 -12 46 -32 21 -25 30 -30 26 -17 -3 11 -9 31 -13 45
l-7 25 27 -29 c21 -22 26 -35 22 -60 l-6 -31 11 28 c6 15 15 25 20 21 5 -3 9
0 9 5 0 6 5 11 10 11 6 0 10 -6 10 -14 0 -10 9 -13 27 -11 15 1 37 -1 49 -5
14 -6 21 -4 21 5 0 13 -282 154 -452 225 -99 42 -181 78 -200 88 -5 3 -5 0 1
-7z"/>
<path d="M3692 3983 c-5 -10 -7 -23 -5 -30 2 -6 -1 -14 -6 -18 -16 -9 -13 -22
3 -22 8 0 14 7 14 16 0 9 3 28 7 44 8 30 0 36 -13 10z"/>
<path d="M3723 3953 c-7 -2 -13 -12 -12 -21 0 -11 2 -12 6 -4 2 6 11 12 19 12
8 0 14 5 14 10 0 11 -7 12 -27 3z"/>
<path d="M4440 3951 c0 -5 5 -13 10 -16 6 -3 10 -2 10 4 0 5 -4 13 -10 16 -5
3 -10 2 -10 -4z"/>
<path d="M3807 3923 c-4 -3 -7 -11 -7 -17 0 -6 5 -5 12 2 6 6 9 14 7 17 -3 3
-9 2 -12 -2z"/>
<path d="M3935 3900 c-3 -5 -2 -10 4 -10 5 0 13 5 16 10 3 6 2 10 -4 10 -5 0
-13 -4 -16 -10z"/>
<path d="M4301 3834 c0 -11 3 -14 6 -6 3 7 2 16 -1 19 -3 4 -6 -2 -5 -13z"/>
<path d="M3991 3824 c0 -11 3 -14 6 -6 3 7 2 16 -1 19 -3 4 -6 -2 -5 -13z"/>
<path d="M3595 3821 c-4 -7 -3 -16 2 -20 6 -3 13 -13 16 -21 5 -13 5 -13 6 0
0 8 -4 24 -8 34 -6 15 -10 16 -16 7z"/>
<path d="M4586 3803 c-6 -14 -5 -15 5 -6 7 7 10 15 7 18 -3 3 -9 -2 -12 -12z"/>
<path d="M4561 3794 c0 -11 3 -14 6 -6 3 7 2 16 -1 19 -3 4 -6 -2 -5 -13z"/>
<path d="M4615 3789 c-4 -6 -5 -12 -2 -15 2 -3 7 2 10 11 7 17 1 20 -8 4z"/>
<path d="M4380 3779 c0 -5 5 -7 10 -4 6 3 10 8 10 11 0 2 -4 4 -10 4 -5 0 -10
-5 -10 -11z"/>
<path d="M4641 3774 c0 -11 3 -14 6 -6 3 7 2 16 -1 19 -3 4 -6 -2 -5 -13z"/>
<path d="M4321 3771 c-8 -5 -9 -11 -3 -15 5 -3 15 1 22 9 14 16 3 20 -19 6z"/>
<path d="M4565 3745 c-3 -8 -7 -22 -10 -31 -3 -8 0 -12 5 -9 6 3 10 13 10 21
0 8 5 14 10 14 6 0 10 5 10 10 0 16 -20 12 -25 -5z"/>
<path d="M4708 3754 c-5 -4 -8 -16 -8 -28 0 -14 3 -17 11 -9 6 6 9 19 7 28 -1
9 -6 13 -10 9z"/>
<path d="M3747 3737 c-3 -8 -1 -20 4 -28 6 -10 9 -7 9 14 0 29 -5 35 -13 14z"/>
<path d="M4301 3723 c-1 -12 -4 -30 -7 -40 -5 -15 -4 -15 5 -3 9 12 11 13 11
1 0 -8 2 -12 4 -10 3 2 1 20 -4 39 -5 22 -8 27 -9 13z"/>
<path d="M4342 3710 c0 -14 2 -19 5 -12 2 6 2 18 0 25 -3 6 -5 1 -5 -13z"/>
<path d="M4790 3697 c1 -28 15 -35 26 -13 9 18 7 22 -8 23 -10 1 -18 -4 -18
-10z"/>
<path d="M4680 3693 c1 -18 18 -35 24 -24 4 6 4 16 1 21 -7 12 -25 13 -25 3z"/>
<path d="M4752 3680 c-8 -13 -8 -20 -2 -20 6 0 13 7 17 15 9 24 -1 27 -15 5z"/>
<path d="M5074 3682 c2 -9 7 -17 13 -19 14 -5 12 25 -3 31 -7 3 -11 -2 -10
-12z"/>
<path d="M4260 3690 c-1 -3 -4 -16 -6 -30 -3 -18 -2 -22 7 -13 6 6 9 19 6 29
-3 11 -6 17 -7 14z"/>
<path d="M4192 3655 c-7 -8 -9 -15 -4 -15 5 0 15 7 22 15 16 19 -1 19 -18 0z"/>
<path d="M4920 3646 c0 -8 5 -18 10 -21 6 -3 10 3 10 14 0 12 -4 21 -10 21 -5
0 -10 -6 -10 -14z"/>
<path d="M4537 3634 c-4 -4 -7 -14 -7 -23 0 -11 3 -12 11 -4 6 6 10 16 7 23
-2 6 -7 8 -11 4z"/>
<path d="M4837 3621 c-3 -13 -10 -20 -16 -16 -13 7 -13 -12 -1 -40 8 -18 9
-18 9 6 1 14 6 30 12 36 6 6 9 17 7 24 -3 8 -7 4 -11 -10z"/>
<path d="M4276 3615 c-3 -9 -6 -24 -5 -33 0 -9 5 -4 10 12 9 32 6 48 -5 21z"/>
<path d="M4431 3613 c-5 -10 -9 -22 -10 -28 0 -5 -8 -18 -16 -28 -17 -20 -21
-37 -4 -20 6 6 19 9 28 6 14 -4 14 -3 1 6 -13 9 -12 11 1 16 9 3 16 18 17 35
1 34 -3 37 -17 13z"/>
<path d="M4576 3603 c-6 -14 -5 -15 5 -6 7 7 10 15 7 18 -3 3 -9 -2 -12 -12z"/>
<path d="M5005 3600 c-3 -5 -1 -10 4 -10 6 0 11 5 11 10 0 6 -2 10 -4 10 -3 0
-8 -4 -11 -10z"/>
<path d="M4360 3583 c0 -11 3 -14 8 -7 4 6 14 14 22 17 10 4 8 6 -7 6 -16 1
-23 -5 -23 -16z"/>
<path d="M4641 3584 c0 -11 3 -14 6 -6 3 7 2 16 -1 19 -3 4 -6 -2 -5 -13z"/>
<path d="M4210 3579 c0 -5 5 -7 10 -4 6 3 10 8 10 11 0 2 -4 4 -10 4 -5 0 -10
-5 -10 -11z"/>
<path d="M4217 3536 c-4 -10 -5 -21 -2 -24 9 -9 17 6 13 25 -3 17 -4 17 -11
-1z"/>
<path d="M4570 3535 c-11 -13 -10 -14 4 -9 9 3 16 10 16 15 0 13 -6 11 -20 -6z"/>
<path d="M4660 3531 c0 -11 3 -27 6 -36 5 -13 8 -14 15 -3 12 19 11 30 -3 22
-8 -5 -9 0 -6 14 4 12 2 22 -3 22 -5 0 -9 -9 -9 -19z"/>
<path d="M4724 3539 c-3 -6 -1 -16 5 -22 8 -8 11 -5 11 11 0 24 -5 28 -16 11z"/>
<path d="M4990 3525 c0 -8 4 -15 10 -15 5 0 7 7 4 15 -4 8 -8 15 -10 15 -2 0
-4 -7 -4 -15z"/>
<path d="M4407 3523 c-4 -3 -7 -13 -7 -22 1 -13 3 -13 11 2 11 19 8 33 -4 20z"/>
<path d="M4467 3513 c-4 -3 -7 -11 -7 -17 0 -6 5 -5 12 2 6 6 9 14 7 17 -3 3
-9 2 -12 -2z"/>
<path d="M4580 3501 c-13 -26 -13 -31 4 -25 16 6 29 44 15 44 -4 0 -13 -9 -19
-19z"/>
<path d="M4627 3489 c4 -13 8 -18 11 -10 2 7 -1 18 -6 23 -8 8 -9 4 -5 -13z"/>
<path d="M4436 3485 c4 -8 8 -15 10 -15 2 0 4 7 4 15 0 8 -4 15 -10 15 -5 0
-7 -7 -4 -15z"/>
<path d="M4480 3470 c0 -5 5 -10 10 -10 6 0 10 5 10 10 0 6 -4 10 -10 10 -5 0
-10 -4 -10 -10z"/>
<path d="M4636 3443 c-4 -9 -3 -20 2 -25 4 -4 9 4 10 17 2 29 -3 32 -12 8z"/>
<path d="M4850 3441 c0 -11 4 -22 9 -25 4 -3 6 6 3 19 -5 30 -12 33 -12 6z"/>
<path d="M4694 3435 c-8 -20 3 -48 16 -40 5 3 10 11 10 16 0 6 -5 7 -11 3 -8
-4 -9 0 -4 15 7 24 -2 29 -11 6z"/>
<path d="M4791 3434 c0 -11 3 -14 6 -6 3 7 2 16 -1 19 -3 4 -6 -2 -5 -13z"/>
<path d="M4462 3420 c0 -14 2 -19 5 -12 2 6 2 18 0 25 -3 6 -5 1 -5 -13z"/>
<path d="M4771 3414 c0 -11 3 -14 6 -6 3 7 2 16 -1 19 -3 4 -6 -2 -5 -13z"/>
<path d="M4566 3403 c-6 -14 -5 -15 5 -6 7 7 10 15 7 18 -3 3 -9 -2 -12 -12z"/>
<path d="M4720 3359 c0 -5 5 -7 10 -4 6 3 10 8 10 11 0 2 -4 4 -10 4 -5 0 -10
-5 -10 -11z"/>
<path d="M4783 3335 c-7 -8 -10 -22 -6 -32 6 -14 8 -12 15 12 9 34 7 38 -9 20z"/>
<path d="M4727 3300 c3 -11 7 -20 9 -20 2 0 4 9 4 20 0 11 -4 20 -9 20 -5 0
-7 -9 -4 -20z"/>
<path d="M4912 3290 c-7 -11 -8 -20 -3 -20 9 0 24 30 18 36 -1 2 -8 -6 -15
-16z"/>
<path d="M4916 3234 c-4 -9 -4 -19 -1 -22 2 -3 7 3 11 12 4 9 4 19 1 22 -2 3
-7 -3 -11 -12z"/>
<path d="M5035 3215 c0 -13 3 -21 8 -18 4 2 7 10 7 18 0 8 -3 16 -7 18 -5 3
-8 -5 -8 -18z"/>
<path d="M4962 3200 c0 -14 2 -19 5 -12 2 6 2 18 0 25 -3 6 -5 1 -5 -13z"/>
<path d="M5126 3205 c-3 -9 -6 -22 -5 -28 0 -7 5 -1 10 12 5 13 8 26 5 28 -2
2 -6 -3 -10 -12z"/>
<path d="M5055 3180 c-3 -5 -2 -17 3 -26 8 -14 10 -12 10 9 0 29 -3 33 -13 17z"/>
<path d="M5097 3173 c-10 -10 -8 -53 2 -53 15 0 23 18 12 25 -6 3 -8 12 -4 20
5 16 1 20 -10 8z"/>
<path d="M5037 3143 c-4 -3 -7 -11 -7 -17 0 -6 5 -5 12 2 6 6 9 14 7 17 -3 3
-9 2 -12 -2z"/>
<path d="M5155 3140 c3 -5 8 -10 11 -10 2 0 4 5 4 10 0 6 -5 10 -11 10 -5 0
-7 -4 -4 -10z"/>
<path d="M5131 3124 c0 -11 3 -14 6 -6 3 7 2 16 -1 19 -3 4 -6 -2 -5 -13z"/>
<path d="M5190 3065 c-6 -8 -10 -19 -8 -24 1 -6 8 1 15 14 13 28 11 31 -7 10z"/>
<path d="M5357 3053 c-4 -3 -7 -13 -7 -22 1 -13 3 -13 11 2 11 19 8 33 -4 20z"/>
<path d="M5267 3003 c-3 -16 -1 -35 4 -43 6 -10 8 -2 9 28 0 48 -5 55 -13 15z"/>
<path d="M5321 2914 c0 -11 3 -14 6 -6 3 7 2 16 -1 19 -3 4 -6 -2 -5 -13z"/>
<path d="M5305 2870 c3 -5 8 -10 11 -10 2 0 4 5 4 10 0 6 -5 10 -11 10 -5 0
-7 -4 -4 -10z"/>
<path d="M5460 2845 c0 -8 4 -15 10 -15 5 0 7 7 4 15 -4 8 -8 15 -10 15 -2 0
-4 -7 -4 -15z"/>
<path d="M5337 2843 c-12 -12 -7 -22 8 -17 8 4 15 10 15 15 0 11 -14 12 -23 2z"/>
<path d="M5416 2822 c-4 -13 -5 -26 -2 -29 10 -11 18 4 14 29 l-4 23 -8 -23z"/>
<path d="M5364 2806 c-7 -8 -8 -20 -2 -35 7 -19 11 -21 23 -11 18 15 19 34 3
48 -9 7 -16 6 -24 -2z"/>
<path d="M5477 2803 c-4 -3 -7 -11 -7 -17 0 -6 5 -5 12 2 6 6 9 14 7 17 -3 3
-9 2 -12 -2z"/>
<path d="M5320 2780 c0 -19 3 -21 12 -12 9 9 9 15 0 24 -9 9 -12 7 -12 -12z"/>
<path d="M5435 2771 c-3 -5 -1 -12 5 -16 5 -3 10 1 10 9 0 18 -6 21 -15 7z"/>
<path d="M5610 2730 c0 -5 5 -10 10 -10 6 0 10 5 10 10 0 6 -4 10 -10 10 -5 0
-10 -4 -10 -10z"/>
<path d="M5721 2634 c0 -11 3 -14 6 -6 3 7 2 16 -1 19 -3 4 -6 -2 -5 -13z"/>
<path d="M5760 2501 c0 -6 5 -13 10 -16 6 -3 10 1 10 9 0 9 -4 16 -10 16 -5 0
-10 -4 -10 -9z"/>
<path d="M3000 2235 c1 -26 2 -28 11 -12 8 14 8 22 0 30 -8 8 -11 3 -11 -18z"/>
<path d="M3110 2211 c0 -7 -4 -9 -10 -6 -5 3 -10 1 -10 -4 0 -6 4 -11 9 -11
13 0 25 20 17 27 -3 4 -6 1 -6 -6z"/>
<path d="M3136 2197 c3 -10 9 -15 12 -12 3 3 0 11 -7 18 -10 9 -11 8 -5 -6z"/>
<path d="M3240 1819 c0 -11 5 -17 10 -14 6 3 10 13 10 21 0 8 -4 14 -10 14 -5
0 -10 -9 -10 -21z"/>
<path d="M3171 1784 c0 -11 3 -14 6 -6 3 7 2 16 -1 19 -3 4 -6 -2 -5 -13z"/>
<path d="M3222 1740 c0 -14 2 -19 5 -12 2 6 2 18 0 25 -3 6 -5 1 -5 -13z"/>
<path d="M3281 1734 c0 -11 3 -14 6 -6 3 7 2 16 -1 19 -3 4 -6 -2 -5 -13z"/>
<path d="M3130 1629 c0 -5 5 -7 10 -4 6 3 10 8 10 11 0 2 -4 4 -10 4 -5 0 -10
-5 -10 -11z"/>
<path d="M3550 1284 c0 -14 4 -23 9 -20 5 3 7 15 4 26 -7 28 -13 25 -13 -6z"/>
<path d="M3987 1303 c-4 -3 -7 -13 -7 -22 1 -13 3 -13 11 2 11 19 8 33 -4 20z"/>
<path d="M3852 1240 c0 -14 2 -19 5 -12 2 6 2 18 0 25 -3 6 -5 1 -5 -13z"/>
</g>
</svg>
